<svg xmlns="http://www.w3.org/2000/svg" width="1024" height="242" viewBox="-2.034 -2.034 304.068 71.869"><path d="M0 60.9v6.8h259.7v-6.8zm277.7 0v6.8H300v-6.8z" style="fill:#159e49"/><path d="M55.3 0c-1.6 0-3 .5-4 1.5-1.1 1.1-1.6 2.4-1.6 4s.5 3 1.6 4 2.4 1.5 4 1.5 3-.5 4-1.5c1.1-1.1 1.6-2.4 1.6-4 0-1.7-.6-3-1.6-4S57 0 55.3 0zM0 2.6V9c3.9 0 7 3.2 7 7.1 0 3.9-3.1 7.1-7 7.1V29c3.9 0 7 3.2 7 7.1v1.1c0 3.9-3.1 7.1-7 7.1v6.4h26.5c2.3 0 4.3-.3 6.2-1 1.9-.6 3.5-1.5 4.9-2.7 1.4-1.2 2.5-2.6 3.2-4.2.8-1.6 1.2-3.4 1.2-5.4 0-2.9-.7-5.3-2.2-7.4-1.5-2.1-3.5-3.6-6-4.5 2-.9 3.5-2.2 4.7-4 1.2-1.8 1.8-3.9 1.8-6.3 0-1.9-.4-3.6-1.1-5.1-.7-1.6-1.8-2.9-3.1-4s-2.9-2-4.7-2.6c-1.8-.6-3.8-.9-6-.9zm72.3 2.8v10.3h-6.4v7h6.4v17.7c0 1.7.2 3.2.8 4.6.6 1.4 1.4 2.6 2.4 3.6 1.1 1 2.3 1.8 3.7 2.3 1.4.5 3 .8 4.7.8 2.5 0 5.1-.4 7.8-1.1l-1.2-6.9c-1.6.4-3.1.6-4.4.6-1.5 0-2.6-.5-3.5-1.4-.9-.9-1.3-2.1-1.3-3.6V22.5h9.5v-7h-9.6V5.4Zm60.9 0v10.3h-6.4v7h6.4v17.7c0 1.7.2 3.2.8 4.6.6 1.4 1.3 2.6 2.4 3.6 1.1 1 2.3 1.8 3.7 2.3 1.4.5 3 .8 4.7.8 2.5 0 5.1-.4 7.8-1.1l-1.2-6.9c-1.6.4-3.1.6-4.4.6-1.5 0-2.6-.5-3.5-1.4-.9-.9-1.3-2.1-1.3-3.6V22.5h9.5v-7h-9.6V5.4ZM13.7 9.5H24c2.1 0 3.8.6 5.2 1.9 1.4 1.2 2 2.9 2 4.9 0 2-.7 3.6-2 4.8-1.4 1.2-3.1 1.8-5.2 1.8H13.7Zm95.9 5c-1.9 0-3.8.3-5.4.8-1.6.5-3 1.3-4.2 2.2-1.1 1-2 2.1-2.7 3.4-.7 1.3-1 2.8-1 4.3 0 2.2.4 4 1.3 5.2.9 1.3 2 2.3 3.4 3.1 1.4.8 2.8 1.4 4.4 1.8 1.6.4 3 .8 4.4 1.2 1.4.4 2.5.9 3.4 1.5.9.6 1.4 1.4 1.4 2.5 0 1.3-.5 2.3-1.5 3-1 .7-2.4 1.1-4.1 1.1-3.3 0-7-.8-11.1-2.5L96 48.6c4.8 1.9 9.4 2.8 13.7 2.8 2 0 3.9-.3 5.6-.8 1.8-.6 3.2-1.3 4.4-2.3 1.2-1 2.1-2.2 2.8-3.5.7-1.4 1-2.8 1-4.4 0-2.2-.5-4-1.4-5.4-.9-1.3-2-2.4-3.4-3.2-1.3-.8-2.8-1.4-4.4-1.8-1.6-.3-3-.7-4.4-1.1-1.4-.4-2.5-.9-3.4-1.4-.9-.5-1.4-1.3-1.4-2.4 0-1.2.4-2.1 1.4-2.8 1-.7 2.3-1 3.9-1 1.5 0 3.1.2 4.8.6 1.7.4 3.4.9 5.1 1.6l2-6.6c-2.2-.8-4.4-1.4-6.5-1.8-2.1-.4-4.2-.6-6.2-.6zm109 0c-2.3 0-4.4.5-6.4 1.5s-3.6 2.4-5 4.2l-1.1-4.8h-7.3v35.2h9.1V30.7c0-2.6.7-4.6 2.2-6.2 1.5-1.6 3.4-2.4 5.8-2.4 2 0 3.599.7 4.799 1.9 1.2 1.3 1.8 2.9 1.8 4.9v21.7h9.1V30.7c0-2.6.701-4.6 2.201-6.2 1.5-1.6 3.4-2.4 5.7-2.4 2 0 3.6.7 4.9 1.9 1.3 1.3 1.9 2.9 1.9 4.9v21.7h9.1V27.4c0-1.9-.4-3.6-1-5.2s-1.501-3-2.701-4.1c-1.1-1.2-2.5-2.1-4.1-2.7-1.6-.6-3.299-.9-5.199-.9-2.6 0-4.9.5-7 1.6-2.1 1.1-4 2.7-5.6 4.8-1-2-2.5-3.6-4.4-4.7-2-1.1-4.2-1.7-6.8-1.7zm64.7 0c-2.3 0-4.4.5-6.3 1.4-1.9 1-3.4 2.3-4.7 4l-1.1-4.5H264v52.4h9V46.5c1.2 1.6 2.7 2.8 4.5 3.6 1.7.8 3.7 1.2 5.8 1.2 2.3 0 4.5-.5 6.4-1.4 1.9-.9 3.6-2.2 5-3.8 1.4-1.6 2.5-3.6 3.3-5.8.8-2.2 1.2-4.7 1.2-7.4s-.4-5.2-1.2-7.4c-.8-2.3-1.9-4.2-3.3-5.8-1.4-1.6-3.1-2.9-5-3.8-2-.9-4.1-1.4-6.4-1.4zm-109 .2c-4.8 0-9.7.9-14.7 2.9l2.3 6.4c4.1-1.7 7.9-2.5 11.4-2.5 2.2 0 3.9.6 5.2 1.7 1.3 1.1 1.9 2.6 1.9 4.4v1.9c-1.1-.2-2.3-.4-3.4-.5-1.1-.1-2.2-.2-3.3-.2-5.1 0-9 1-11.8 3-2.8 2-4.2 4.9-4.2 8.6 0 1.6.3 3.1 1 4.5.6 1.4 1.4 2.5 2.5 3.5s2.4 1.8 3.9 2.3c1.5.5 3.2.8 5 .8 2.2 0 4.2-.4 6.2-1.2 1.9-.8 3.7-2 5.2-3.5.6 1.5 1.5 2.7 2.8 3.5 1.3.9 2.8 1.3 4.6 1.3.9 0 1.7 0 2.5-.1s1.5-.3 2.3-.4l-.6-6.7c-.1 0-.4.1-.7.1-.4.1-.7.1-1.1.1-.8 0-1.4-.2-1.8-.7-.4-.4-.6-1-.6-1.8V27.8c0-1.9-.4-3.7-1.1-5.3-.7-1.6-1.7-3-3-4.1-1.3-1.2-2.8-2.1-4.6-2.7-1.8-.7-3.7-1-5.9-1zm-123.7.9v35h9.3v-35zM281 21.8c1.3 0 2.5.2 3.6.8 1.1.6 2 1.3 2.8 2.3.8.9 1.5 2.1 1.9 3.5.5 1.4.7 2.9.7 4.5s-.2 3.2-.7 4.5c-.5 1.3-1.1 2.5-1.9 3.5-.8 1-1.7 1.8-2.8 2.3-1.1.5-2.3.8-3.6.8-1.2 0-2.3-.2-3.3-.6-1-.4-1.9-1-2.6-1.8-.7-.8-1.3-1.7-1.7-2.8-.4-1-.6-2.2-.6-3.5v-4.7c0-2.6.8-4.7 2.3-6.3 1.6-1.7 3.5-2.5 5.9-2.5zM13.7 29.1h11.2c2.3 0 4.2.7 5.7 2 1.4 1.3 2.1 3.1 2.1 5.2.1 2.2-.6 4-2.1 5.3-1.4 1.4-3.3 2-5.7 2H13.7Zm161 4.9c2.1 0 4 .2 5.7.7v2.1c0 2.4-.7 4.4-2.2 5.9-1.5 1.5-3.4 2.3-5.8 2.3-1.7 0-3.1-.5-4.3-1.5-1.1-1-1.7-2.2-1.7-3.6 0-1.8.8-3.3 2.2-4.3 1.5-1.1 3.5-1.6 6.1-1.6z" style="fill:#333433"/></svg>